<?xml version="1.0" encoding="utf-8"?>
<!-- created with bpmn-js / http://bpmn.io -->
<!DOCTYPE svg PUBLIC "-//W3C//DTD SVG 1.1//EN" "http://www.w3.org/Graphics/SVG/1.1/DTD/svg11.dtd">
<svg xmlns="http://www.w3.org/2000/svg" xmlns:xlink="http://www.w3.org/1999/xlink" width="671" height="418" viewBox="386 -173 671 418" version="1.1"><defs><marker viewBox="0 0 20 20" markerWidth="10" markerHeight="10" orient="auto" refX="11" refY="10" id="markerSivikrbrp9"><path d="M 1 5 L 11 10 L 1 15 Z" style="stroke-width: 1; stroke-linecap: round; stroke-dasharray: 10000, 1;" fill="#000000"/></marker><marker viewBox="0 0 20 20" markerWidth="20" markerHeight="20" orient="auto" refX="6" refY="6" id="markerSivikrbrpb"><circle cx="6" cy="6" r="3.5" style="stroke-width: 1; stroke-linecap: round; stroke-dasharray: 10000, 1;" fill="#ffffff" stroke="#000000"/></marker><marker viewBox="0 0 20 20" markerWidth="20" markerHeight="20" orient="auto" refX="8.5" refY="5" id="markerSivikrbrpd"><path d="m 1 5 l 0 -3 l 7 3 l -7 3 z" fill="#ffffff" stroke="#000000" style="stroke-width: 1; stroke-linecap: butt; stroke-dasharray: 10000, 1;"/></marker><marker viewBox="0 0 20 20" markerWidth="10" markerHeight="10" orient="auto" refX="1" refY="10" id="markerSivikrbrpf"><path d="M 11 5 L 1 10 L 11 15" fill="none" stroke="#000000" style="stroke-width: 1.5; stroke-linecap: round; stroke-dasharray: 10000, 1;"/></marker><marker viewBox="0 0 20 20" markerWidth="10" markerHeight="10" orient="auto" refX="12" refY="10" id="markerSivikrbrph"><path d="M 1 5 L 11 10 L 1 15" fill="none" stroke="#000000" style="stroke-width: 1.5; stroke-linecap: round; stroke-dasharray: 10000, 1;"/></marker><marker viewBox="0 0 20 20" markerWidth="10" markerHeight="10" orient="auto" refX="-1" refY="10" id="markerSivikrbrpj"><path d="M 0 10 L 8 6 L 16 10 L 8 14 Z" fill="#ffffff" stroke="#000000" style="stroke-width: 1; stroke-linecap: round; stroke-dasharray: 10000, 1;"/></marker><marker viewBox="0 0 20 20" markerWidth="10" markerHeight="10" orient="auto" refX="-5" refY="10" id="markerSivikrbrpl"><path d="M 1 4 L 5 16" fill="#000000" stroke="#000000" style="stroke-width: 1; stroke-linecap: round; stroke-dasharray: 10000, 1;"/></marker></defs><g class="djs-group" xmlns="http://www.w3.org/2000/svg"><g data-element-id="Participant_09ol23l" class="djs-element djs-shape hover selected" transform="matrix(1,0,0,1,392,-167)" style="display: block;"><g class="djs-visual"><rect x="0" y="0" width="659" height="406" rx="0" ry="0" stroke="#000000" fill="#ffffff" style="stroke-width: 2; fill-opacity: 0.95;"></rect><polyline points="30,0 30,406 " fill="none" stroke="#000000" style="stroke-width: 2;"></polyline><text class=" djs-label" style="font-family: Arial, sans-serif; font-size: 12px;" transform="matrix(0,-1,1,0,0,406)"><tspan x="158.109375" y="18.5">Web Application</tspan></text></g><rect x="0" y="0" width="659" height="406" fill="none" stroke="#ffffff" style="stroke-opacity: 0; stroke-width: 15;" class="djs-hit"></rect><rect x="-6" y="-6" width="671" height="418" fill="none" class="djs-outline"></rect></g><g class="djs-children"><g class="djs-group"><g data-element-id="StartEvent_1" transform="matrix(1,0,0,1,442,-85)" class="djs-element djs-shape" style="display: block;"><g class="djs-visual"><circle cx="18" cy="18" r="18" stroke="#000000" fill="#ffffff" style="stroke-width: 2;"></circle></g><rect x="0" y="0" width="36" height="36" fill="none" stroke="#ffffff" style="stroke-opacity: 0; stroke-width: 15;" class="djs-hit"></rect><rect x="-6" y="-6" width="48" height="48" fill="none" class="djs-outline"></rect></g></g><g class="djs-group"><g data-element-id="StartEvent_1_label" class="djs-element djs-shape" transform="matrix(1,0,0,1,425,-49)" style="display: block;"><g class="djs-visual"><text class=" djs-label" style="font-family: Arial, sans-serif; font-size: 11px;" transform="matrix(1,0,0,1,-11,0)"><tspan x="11" y="12">Get user from </tspan><tspan x="25.5" y="24">Session </tspan></text></g><rect x="0" y="0" width="69" height="24" fill="none" stroke="#ffffff" style="stroke-opacity: 0; stroke-width: 15;" class="djs-hit"></rect><rect x="-6" y="-6" width="81" height="36" fill="none" class="djs-outline"></rect></g></g><g class="djs-group"><g data-element-id="Task_1dcnrqq" class="djs-element djs-shape" transform="matrix(1,0,0,1,666,133.1164)" style="display: block;"><g class="djs-visual"><rect x="0" y="0" width="100" height="80" rx="10" ry="10" stroke="#000000" fill="#ffffff" style="stroke-width: 2;"></rect><text class=" djs-label" style="font-family: Arial, sans-serif; font-size: 12px;"><tspan x="34.5" y="43.5">Login</tspan></text></g><rect x="0" y="0" width="100" height="80" fill="none" stroke="#ffffff" style="stroke-opacity: 0; stroke-width: 15;" class="djs-hit"></rect><rect x="-6" y="-6" width="112" height="92" fill="none" class="djs-outline"></rect></g></g><g class="djs-group"><g data-element-id="EndEvent_13licm2" transform="matrix(1,0,0,1,984.7057,-85)" class="djs-element djs-shape" style="display: block;"><g class="djs-visual"><circle cx="18" cy="18" r="18" stroke="#000000" fill="#ffffff" style="stroke-width: 4;"></circle></g><rect x="0" y="0" width="36" height="36" fill="none" stroke="#ffffff" style="stroke-opacity: 0; stroke-width: 15;" class="djs-hit"></rect><rect x="-6" y="-6" width="48" height="48" fill="none" class="djs-outline"></rect></g></g><g class="djs-group"><g data-element-id="Task_1dv16me" class="djs-element djs-shape" transform="matrix(1,0,0,1,432,69.5234)" style="display: block;"><g class="djs-visual"><rect x="0" y="0" width="100" height="80" rx="10" ry="10" stroke="#000000" fill="#ffffff" style="stroke-width: 2;"></rect><text class=" djs-label" style="font-family: Arial, sans-serif; font-size: 12px;"><tspan x="24" y="29.5">Begin log </tspan><tspan x="11" y="43.5">process. Have </tspan><tspan x="28" y="57.5">account </tspan></text></g><rect x="0" y="0" width="100" height="80" fill="none" stroke="#ffffff" style="stroke-opacity: 0; stroke-width: 15;" class="djs-hit"></rect><rect x="-6" y="-6" width="112" height="92" fill="none" class="djs-outline"></rect></g></g><g class="djs-group"><g data-element-id="ExclusiveGateway_0f5g44d" transform="matrix(1,0,0,1,571,85)" class="djs-element djs-shape" style="display: block;"><g class="djs-visual"><polygon points="25,0,50,25,25,50,0,25" stroke="#000000" fill="#ffffff" style="stroke-width: 2;"></polygon><path d="m 16,15 7.42857142857143,9.714285714285715 -7.42857142857143,9.714285714285715 3.428571428571429,0 5.714285714285715,-7.464228571428572 5.714285714285715,7.464228571428572 3.428571428571429,0 -7.42857142857143,-9.714285714285715 7.42857142857143,-9.714285714285715 -3.428571428571429,0 -5.714285714285715,7.464228571428572 -5.714285714285715,-7.464228571428572 -3.428571428571429,0 z" fill="#000000" stroke="#000000" style="stroke-width: 1;"></path></g><rect x="0" y="0" width="50" height="50" fill="none" stroke="#ffffff" style="stroke-opacity: 0; stroke-width: 15;" class="djs-hit"></rect><rect x="-6" y="-6" width="62" height="62" fill="none" class="djs-outline"></rect></g><g class="djs-children"></g></g><g class="djs-group"><g data-element-id="Task_0rdnxk3" class="djs-element djs-shape" transform="matrix(1,0,0,1,665.8881,11.1164)" style="display: block;"><g class="djs-visual"><rect x="0" y="0" width="100" height="80" rx="10" ry="10" stroke="#000000" fill="#ffffff" style="stroke-width: 2;"></rect><text class=" djs-label" style="font-family: Arial, sans-serif; font-size: 12px;"><tspan x="26.5" y="43.5">Register</tspan></text></g><rect x="0" y="0" width="100" height="80" fill="none" stroke="#ffffff" style="stroke-opacity: 0; stroke-width: 15;" class="djs-hit"></rect><rect x="-6" y="-6" width="112" height="92" fill="none" class="djs-outline"></rect></g></g><g class="djs-group"><g data-element-id="Task_0k1nxwm" class="djs-element djs-shape" transform="matrix(1,0,0,1,546,-107)" style="display: block;"><g class="djs-visual"><rect x="0" y="0" width="100" height="80" rx="10" ry="10" stroke="#000000" fill="#ffffff" style="stroke-width: 2;"></rect><text class=" djs-label" style="font-family: Arial, sans-serif; font-size: 12px;"><tspan x="16.8359375" y="36.5">Check User.</tspan><tspan x="20" y="50.5">User exists</tspan></text></g><rect x="0" y="0" width="100" height="80" fill="none" stroke="#ffffff" style="stroke-opacity: 0; stroke-width: 15;" class="djs-hit"></rect><rect x="-6" y="-6" width="112" height="92" fill="none" class="djs-outline"></rect></g></g><g class="djs-group"><g data-element-id="ExclusiveGateway_0oiz0eg" transform="matrix(1,0,0,1,690.7057,-92)" class="djs-element djs-shape" style="display: block;"><g class="djs-visual"><polygon points="25,0,50,25,25,50,0,25" stroke="#000000" fill="#ffffff" style="stroke-width: 2;"></polygon><path d="m 16,15 7.42857142857143,9.714285714285715 -7.42857142857143,9.714285714285715 3.428571428571429,0 5.714285714285715,-7.464228571428572 5.714285714285715,7.464228571428572 3.428571428571429,0 -7.42857142857143,-9.714285714285715 7.42857142857143,-9.714285714285715 -3.428571428571429,0 -5.714285714285715,7.464228571428572 -5.714285714285715,-7.464228571428572 -3.428571428571429,0 z" fill="#000000" stroke="#000000" style="stroke-width: 1;"></path></g><rect x="0" y="0" width="50" height="50" fill="none" stroke="#ffffff" style="stroke-opacity: 0; stroke-width: 15;" class="djs-hit"></rect><rect x="-6" y="-6" width="62" height="62" fill="none" class="djs-outline"></rect></g></g><g class="djs-group"><g data-element-id="Task_0dbqtvv" class="djs-element djs-shape" transform="matrix(1,0,0,1,812.7057,-107)" style="display: block;"><g class="djs-visual"><rect x="0" y="0" width="100" height="80" rx="10" ry="10" stroke="#000000" fill="#ffffff" style="stroke-width: 2;"></rect><text class=" djs-label" style="font-family: Arial, sans-serif; font-size: 12px;"><tspan x="13.5" y="36.5">Initialize user </tspan><tspan x="30" y="50.5">context </tspan></text></g><rect x="0" y="0" width="100" height="80" fill="none" stroke="#ffffff" style="stroke-opacity: 0; stroke-width: 15;" class="djs-hit"></rect><rect x="-6" y="-6" width="112" height="92" fill="none" class="djs-outline"></rect></g></g><g class="djs-group"><g data-element-id="Task_0odjxqc" class="djs-element djs-shape" transform="matrix(1,0,0,1,812.6027,133)" style="display: block;"><g class="djs-visual"><rect x="0" y="0" width="100" height="80" rx="10" ry="10" stroke="#000000" fill="#ffffff" style="stroke-width: 2;"></rect><text class=" djs-label" style="font-family: Arial, sans-serif; font-size: 12px;"><tspan x="21" y="36.5">Customize </tspan><tspan x="28" y="50.5">account </tspan></text></g><rect x="0" y="0" width="100" height="80" fill="none" stroke="#ffffff" style="stroke-opacity: 0; stroke-width: 15;" class="djs-hit"></rect><rect x="-6" y="-6" width="112" height="92" fill="none" class="djs-outline"></rect></g></g><g class="djs-group"><g data-element-id="SequenceFlow_0fdvmc1" class="djs-element djs-connection" style="display: block;"><g class="djs-visual"><path d="m  478,-67L546,-67 " fill="none" stroke="#000000" style="stroke-width: 2; stroke-linejoin: round; marker-end: url(&quot;#markerSivikrbrp9&quot;);"></path></g><polyline points="478,-67 546,-67 " fill="none" stroke="#ffffff" style="stroke-opacity: 0; stroke-width: 15;" class="djs-hit"></polyline><rect x="472" y="-73" width="80" height="12" fill="none" class="djs-outline"></rect></g></g><g class="djs-group"><g data-element-id="SequenceFlow_179pzmz" class="djs-element djs-connection" style="display: block;"><g class="djs-visual"><path d="m  646,-67L691,-67 " fill="none" stroke="#000000" style="stroke-width: 2; stroke-linejoin: round; marker-end: url(&quot;#markerSivikrbrp9&quot;);"></path></g><polyline points="646,-67 691,-67 " fill="none" stroke="#ffffff" style="stroke-opacity: 0; stroke-width: 15;" class="djs-hit"></polyline><rect x="640" y="-73" width="57" height="12" fill="none" class="djs-outline"></rect></g></g><g class="djs-group"><g data-element-id="SequenceFlow_03j2ur6" class="djs-element djs-connection" style="display: block;"><g class="djs-visual"><path d="m  741,-67L813,-67 " fill="none" stroke="#000000" style="stroke-width: 2; stroke-linejoin: round; marker-end: url(&quot;#markerSivikrbrp9&quot;);"></path></g><polyline points="741,-67 813,-67 " fill="none" stroke="#ffffff" style="stroke-opacity: 0; stroke-width: 15;" class="djs-hit"></polyline><rect x="735" y="-73" width="84" height="12" fill="none" class="djs-outline"></rect></g></g><g class="djs-group"><g data-element-id="SequenceFlow_02raqt2" class="djs-element djs-connection" style="display: block;"><g class="djs-visual"><path d="m  716,-42L716,-5 L482,-5 L482,70 " fill="none" stroke="#000000" style="stroke-width: 2; stroke-linejoin: round; marker-end: url(&quot;#markerSivikrbrp9&quot;);"></path></g><polyline points="716,-42 716,-5 482,-5 482,70 " fill="none" stroke="#ffffff" style="stroke-opacity: 0; stroke-width: 15;" class="djs-hit"></polyline><rect x="476" y="-48" width="246" height="124" fill="none" class="djs-outline"></rect></g></g><g class="djs-group"><g data-element-id="SequenceFlow_02i15ke" class="djs-element djs-connection" style="display: block;"><g class="djs-visual"><path d="m  913,-67L985,-67 " fill="none" stroke="#000000" style="stroke-width: 2; stroke-linejoin: round; marker-end: url(&quot;#markerSivikrbrp9&quot;);"></path></g><polyline points="913,-67 985,-67 " fill="none" stroke="#ffffff" style="stroke-opacity: 0; stroke-width: 15;" class="djs-hit"></polyline><rect x="907" y="-73" width="84" height="12" fill="none" class="djs-outline"></rect></g></g><g class="djs-group"><g data-element-id="SequenceFlow_1tm0jdd" class="djs-element djs-connection" style="display: block;"><g class="djs-visual"><path d="m  532,110L571,110 " fill="none" stroke="#000000" style="stroke-width: 2; stroke-linejoin: round; marker-end: url(&quot;#markerSivikrbrp9&quot;);"></path></g><polyline points="532,110 571,110 " fill="none" stroke="#ffffff" style="stroke-opacity: 0; stroke-width: 15;" class="djs-hit"></polyline><rect x="526" y="104" width="51" height="12" fill="none" class="djs-outline"></rect></g></g><g class="djs-group"><g data-element-id="SequenceFlow_187rues" class="djs-element djs-connection" style="display: block;"><g class="djs-visual"><path d="m  596,85L596,51 L666,51 " fill="none" stroke="#000000" style="stroke-width: 2; stroke-linejoin: round; marker-end: url(&quot;#markerSivikrbrp9&quot;);"></path></g><polyline points="596,85 596,51 666,51 " fill="none" stroke="#ffffff" style="stroke-opacity: 0; stroke-width: 15;" class="djs-hit"></polyline><rect x="590" y="45" width="82" height="46" fill="none" class="djs-outline"></rect></g></g><g class="djs-group"><g data-element-id="SequenceFlow_00lgofh" class="djs-element djs-connection" style="display: block;"><g class="djs-visual"><path d="m  596,135L596,173 L666,173 " fill="none" stroke="#000000" style="stroke-width: 2; stroke-linejoin: round; marker-end: url(&quot;#markerSivikrbrp9&quot;);"></path></g><polyline points="596,135 596,173 666,173 " fill="none" stroke="#ffffff" style="stroke-opacity: 0; stroke-width: 15;" class="djs-hit"></polyline><rect x="590" y="129" width="82" height="50" fill="none" class="djs-outline"></rect></g></g><g class="djs-group"><g data-element-id="SequenceFlow_1f5su70" class="djs-element djs-connection" style="display: block;"><g class="djs-visual"><path d="m  716,91L716,133 " fill="none" stroke="#000000" style="stroke-width: 2; stroke-linejoin: round; marker-end: url(&quot;#markerSivikrbrp9&quot;);"></path></g><polyline points="716,91 716,133 " fill="none" stroke="#ffffff" style="stroke-opacity: 0; stroke-width: 15;" class="djs-hit"></polyline><rect x="710" y="85" width="12" height="54" fill="none" class="djs-outline"></rect></g></g><g class="djs-group"><g data-element-id="SequenceFlow_1ohws8s" class="djs-element djs-connection" style="display: block;"><g class="djs-visual"><path d="m  766,173L813,173 " fill="none" stroke="#000000" style="stroke-width: 2; stroke-linejoin: round; marker-end: url(&quot;#markerSivikrbrp9&quot;);"></path></g><polyline points="766,173 813,173 " fill="none" stroke="#ffffff" style="stroke-opacity: 0; stroke-width: 15;" class="djs-hit"></polyline><rect x="760" y="167" width="59" height="12" fill="none" class="djs-outline"></rect></g></g><g class="djs-group"><g data-element-id="SequenceFlow_1gt7obd" class="djs-element djs-connection" style="display: block;"><g class="djs-visual"><path d="m  863,133L863,53 L863,53 L863,-27 " fill="none" stroke="#000000" style="stroke-width: 2; stroke-linejoin: round; marker-end: url(&quot;#markerSivikrbrp9&quot;);"></path></g><polyline points="863,133 863,53 863,53 863,-27 " fill="none" stroke="#ffffff" style="stroke-opacity: 0; stroke-width: 15;" class="djs-hit"></polyline><rect x="857" y="-33" width="12" height="172" fill="none" class="djs-outline"></rect></g></g><g class="djs-group"><g data-element-id="EndEvent_13licm2_label" class="djs-element djs-shape" transform="matrix(1,0,0,1,964,-115)" style="display: block;"><g class="djs-visual"><text class=" djs-label" style="font-family: Arial, sans-serif; font-size: 11px;" transform="matrix(1,0,0,1,-5.5,0)"><tspan x="5.5" y="12">End log process</tspan></text></g><rect x="0" y="0" width="78" height="12" fill="none" stroke="#ffffff" style="stroke-opacity: 0; stroke-width: 15;" class="djs-hit"></rect><rect x="-6" y="-6" width="90" height="24" fill="none" class="djs-outline"></rect></g></g><g class="djs-group"><g data-element-id="SequenceFlow_1tm0jdd_label" class="djs-element djs-shape" transform="matrix(1,0,0,1,552,95)" style="display: none;"><g class="djs-visual"><text class=" djs-label" style="font-family: Arial, sans-serif; font-size: 11px;" transform="matrix(1,0,0,1,0,0)"><tspan x="45" y="0"></tspan></text></g><rect x="0" y="0" width="0" height="0" fill="none" stroke="#ffffff" style="stroke-opacity: 0; stroke-width: 15;" class="djs-hit"></rect><rect x="-6" y="-6" width="12" height="12" fill="none" class="djs-outline"></rect></g></g><g class="djs-group"><g data-element-id="SequenceFlow_00lgofh_label" class="djs-element djs-shape" transform="matrix(1,0,0,1,614,149.5)" style="display: block;"><g class="djs-visual"><text class=" djs-label" style="font-family: Arial, sans-serif; font-size: 11px;" transform="matrix(1,0,0,1,-33.2031,0)"><tspan x="33.2109375" y="12">True</tspan></text></g><rect x="0" y="0" width="23" height="12" fill="none" stroke="#ffffff" style="stroke-opacity: 0; stroke-width: 15;" class="djs-hit"></rect><rect x="-6" y="-6" width="35" height="24" fill="none" class="djs-outline"></rect></g></g><g class="djs-group"><g data-element-id="ExclusiveGateway_0f5g44d_label" class="djs-element djs-shape" transform="matrix(1,0,0,1,596,135)" style="display: none;"><g class="djs-visual"><text class=" djs-label" style="font-family: Arial, sans-serif; font-size: 11px;" transform="matrix(1,0,0,1,0,0)"><tspan x="45" y="0"></tspan></text></g><rect x="0" y="0" width="0" height="0" fill="none" stroke="#ffffff" style="stroke-opacity: 0; stroke-width: 15;" class="djs-hit"></rect><rect x="-6" y="-6" width="12" height="12" fill="none" class="djs-outline"></rect></g></g><g class="djs-group"><g data-element-id="SequenceFlow_1f5su70_label" class="djs-element djs-shape" transform="matrix(1,0,0,1,731,112)" style="display: none;"><g class="djs-visual"><text class=" djs-label" style="font-family: Arial, sans-serif; font-size: 11px;" transform="matrix(1,0,0,1,0,0)"><tspan x="45" y="0"></tspan></text></g><rect x="0" y="0" width="0" height="0" fill="none" stroke="#ffffff" style="stroke-opacity: 0; stroke-width: 15;" class="djs-hit"></rect><rect x="-6" y="-6" width="12" height="12" fill="none" class="djs-outline"></rect></g></g><g class="djs-group"><g data-element-id="SequenceFlow_0fdvmc1_label" class="djs-element djs-shape" transform="matrix(1,0,0,1,512,-82)" style="display: none;"><g class="djs-visual"><text class=" djs-label" style="font-family: Arial, sans-serif; font-size: 11px;" transform="matrix(1,0,0,1,0,0)"><tspan x="45" y="0"></tspan></text></g><rect x="0" y="0" width="0" height="0" fill="none" stroke="#ffffff" style="stroke-opacity: 0; stroke-width: 15;" class="djs-hit"></rect><rect x="-6" y="-6" width="12" height="12" fill="none" class="djs-outline"></rect></g></g><g class="djs-group"><g data-element-id="SequenceFlow_179pzmz_label" class="djs-element djs-shape" transform="matrix(1,0,0,1,669,-82)" style="display: none;"><g class="djs-visual"><text class=" djs-label" style="font-family: Arial, sans-serif; font-size: 11px;" transform="matrix(1,0,0,1,0,0)"><tspan x="45" y="0"></tspan></text></g><rect x="0" y="0" width="0" height="0" fill="none" stroke="#ffffff" style="stroke-opacity: 0; stroke-width: 15;" class="djs-hit"></rect><rect x="-6" y="-6" width="12" height="12" fill="none" class="djs-outline"></rect></g></g><g class="djs-group"><g data-element-id="SequenceFlow_02raqt2_label" class="djs-element djs-shape" transform="matrix(1,0,0,1,667,-24.454)" style="display: block;"><g class="djs-visual"><text class=" djs-label" style="font-family: Arial, sans-serif; font-size: 11px;" transform="matrix(1,0,0,1,-31.5,0)"><tspan x="31.5" y="12">False</tspan></text></g><rect x="0" y="0" width="27" height="12" fill="none" stroke="#ffffff" style="stroke-opacity: 0; stroke-width: 15;" class="djs-hit"></rect><rect x="-6" y="-6" width="39" height="24" fill="none" class="djs-outline"></rect></g></g><g class="djs-group"><g data-element-id="ExclusiveGateway_0oiz0eg_label" class="djs-element djs-shape" transform="matrix(1,0,0,1,716,-42)" style="display: none;"><g class="djs-visual"><text class=" djs-label" style="font-family: Arial, sans-serif; font-size: 11px;" transform="matrix(1,0,0,1,0,0)"><tspan x="45" y="0"></tspan></text></g><rect x="0" y="0" width="0" height="0" fill="none" stroke="#ffffff" style="stroke-opacity: 0; stroke-width: 15;" class="djs-hit"></rect><rect x="-6" y="-6" width="12" height="12" fill="none" class="djs-outline"></rect></g></g><g class="djs-group"><g data-element-id="SequenceFlow_187rues_label" class="djs-element djs-shape" transform="matrix(1,0,0,1,612,31.9293)" style="display: block;"><g class="djs-visual"><text class=" djs-label" style="font-family: Arial, sans-serif; font-size: 11px;" transform="matrix(1,0,0,1,-31.5,0)"><tspan x="31.5" y="12">False</tspan></text></g><rect x="0" y="0" width="27" height="12" fill="none" stroke="#ffffff" style="stroke-opacity: 0; stroke-width: 15;" class="djs-hit"></rect><rect x="-6" y="-6" width="39" height="24" fill="none" class="djs-outline"></rect></g></g><g class="djs-group"><g data-element-id="SequenceFlow_03j2ur6_label" class="djs-element djs-shape" transform="matrix(1,0,0,1,755,-86)" style="display: block;"><g class="djs-visual"><text class=" djs-label" style="font-family: Arial, sans-serif; font-size: 11px;" transform="matrix(1,0,0,1,-33.2031,0)"><tspan x="33.2109375" y="12">True</tspan></text></g><rect x="0" y="0" width="23" height="12" fill="none" stroke="#ffffff" style="stroke-opacity: 0; stroke-width: 15;" class="djs-hit"></rect><rect x="-6" y="-6" width="35" height="24" fill="none" class="djs-outline"></rect></g></g><g class="djs-group"><g data-element-id="SequenceFlow_02i15ke_label" class="djs-element djs-shape" transform="matrix(1,0,0,1,949,-82)" style="display: none;"><g class="djs-visual"><text class=" djs-label" style="font-family: Arial, sans-serif; font-size: 11px;" transform="matrix(1,0,0,1,0,0)"><tspan x="45" y="0"></tspan></text></g><rect x="0" y="0" width="0" height="0" fill="none" stroke="#ffffff" style="stroke-opacity: 0; stroke-width: 15;" class="djs-hit"></rect><rect x="-6" y="-6" width="12" height="12" fill="none" class="djs-outline"></rect></g></g><g class="djs-group"><g data-element-id="SequenceFlow_1ohws8s_label" class="djs-element djs-shape" transform="matrix(1,0,0,1,790,158)" style="display: none;"><g class="djs-visual"><text class=" djs-label" style="font-family: Arial, sans-serif; font-size: 11px;" transform="matrix(1,0,0,1,0,0)"><tspan x="45" y="0"></tspan></text></g><rect x="0" y="0" width="0" height="0" fill="none" stroke="#ffffff" style="stroke-opacity: 0; stroke-width: 15;" class="djs-hit"></rect><rect x="-6" y="-6" width="12" height="12" fill="none" class="djs-outline"></rect></g></g><g class="djs-group"><g data-element-id="SequenceFlow_1gt7obd_label" class="djs-element djs-shape" transform="matrix(1,0,0,1,878,53)" style="display: none;"><g class="djs-visual"><text class=" djs-label" style="font-family: Arial, sans-serif; font-size: 11px;" transform="matrix(1,0,0,1,0,0)"><tspan x="45" y="0"></tspan></text></g><rect x="0" y="0" width="0" height="0" fill="none" stroke="#ffffff" style="stroke-opacity: 0; stroke-width: 15;" class="djs-hit"></rect><rect x="-6" y="-6" width="12" height="12" fill="none" class="djs-outline"></rect></g></g></g></g></svg>